<svg width="512" height="512" viewBox="0 0 512 512" fill="none" xmlns="http://www.w3.org/2000/svg">
<circle cx="256" cy="256" r="256" fill="black"/>
<path d="M111.091 307H78.0909V213.909H111.364C120.727 213.909 128.788 215.773 135.545 219.5C142.303 223.197 147.5 228.515 151.136 235.455C154.803 242.394 156.636 250.697 156.636 260.364C156.636 270.061 154.803 278.394 151.136 285.364C147.5 292.333 142.273 297.682 135.455 301.409C128.667 305.136 120.545 307 111.091 307ZM97.7727 290.136H110.273C116.091 290.136 120.985 289.106 124.955 287.045C128.955 284.955 131.955 281.727 133.955 277.364C135.985 272.97 137 267.303 137 260.364C137 253.485 135.985 247.864 133.955 243.5C131.955 239.136 128.97 235.924 125 233.864C121.03 231.803 116.136 230.773 110.318 230.773H97.7727V290.136ZM268.53 213.909V307H251.53L211.03 248.409H210.348V307H190.666V213.909H207.939L248.12 272.455H248.939V213.909H268.53Z" fill="white"/>
<path d="M169.895 308.182C166.895 308.182 164.32 307.121 162.168 305C160.047 302.848 158.986 300.273 158.986 297.273C158.986 294.303 160.047 291.758 162.168 289.636C164.32 287.515 166.895 286.455 169.895 286.455C172.805 286.455 175.35 287.515 177.532 289.636C179.714 291.758 180.805 294.303 180.805 297.273C180.805 299.273 180.289 301.106 179.259 302.773C178.259 304.409 176.941 305.727 175.305 306.727C173.668 307.697 171.865 308.182 169.895 308.182Z" fill="#FF6600"/>
<path d="M253.091 307V213.909H290.364C297.212 213.909 302.924 214.924 307.5 216.955C312.076 218.985 315.515 221.803 317.818 225.409C320.121 228.985 321.273 233.106 321.273 237.773C321.273 241.409 320.545 244.606 319.091 247.364C317.636 250.091 315.636 252.333 313.091 254.091C310.576 255.818 307.697 257.045 304.455 257.773V258.682C308 258.833 311.318 259.833 314.409 261.682C317.53 263.53 320.061 266.121 322 269.455C323.939 272.758 324.909 276.697 324.909 281.273C324.909 286.212 323.682 290.621 321.227 294.5C318.803 298.348 315.212 301.394 310.455 303.636C305.697 305.879 299.833 307 292.864 307H253.091ZM272.773 290.909H288.818C294.303 290.909 298.303 289.864 300.818 287.773C303.333 285.652 304.591 282.833 304.591 279.318C304.591 276.742 303.97 274.47 302.727 272.5C301.485 270.53 299.712 268.985 297.409 267.864C295.136 266.742 292.424 266.182 289.273 266.182H272.773V290.909ZM272.773 252.864H287.364C290.061 252.864 292.455 252.394 294.545 251.455C296.667 250.485 298.333 249.121 299.545 247.364C300.788 245.606 301.409 243.5 301.409 241.045C301.409 237.682 300.212 234.97 297.818 232.909C295.455 230.848 292.091 229.818 287.727 229.818H272.773V252.864ZM363.041 307V213.909H399.768C406.829 213.909 412.844 215.258 417.814 217.955C422.783 220.621 426.571 224.333 429.177 229.091C431.814 233.818 433.132 239.273 433.132 245.455C433.132 251.636 431.798 257.091 429.132 261.818C426.465 266.545 422.602 270.227 417.541 272.864C412.511 275.5 406.42 276.818 399.268 276.818H375.859V261.045H396.086C399.874 261.045 402.995 260.394 405.45 259.091C407.935 257.758 409.783 255.924 410.995 253.591C412.238 251.227 412.859 248.515 412.859 245.455C412.859 242.364 412.238 239.667 410.995 237.364C409.783 235.03 407.935 233.227 405.45 231.955C402.965 230.652 399.814 230 395.995 230H382.723V307H363.041Z" fill="white"/>
<path d="M342.27 308.182C339.27 308.182 336.695 307.121 334.543 305C332.422 302.848 331.361 300.273 331.361 297.273C331.361 294.303 332.422 291.758 334.543 289.636C336.695 287.515 339.27 286.455 342.27 286.455C345.18 286.455 347.725 287.515 349.907 289.636C352.089 291.758 353.18 294.303 353.18 297.273C353.18 299.273 352.664 301.106 351.634 302.773C350.634 304.409 349.316 305.727 347.68 306.727C346.043 307.697 344.24 308.182 342.27 308.182Z" fill="#2B88FF"/>
</svg>
